<svg width="594" height="313" viewBox="0 0 594 313" fill="none" xmlns="http://www.w3.org/2000/svg">
<path d="M183.667 161.533C183.049 165.854 181.506 170.947 179.037 176.812C176.567 182.677 173.326 188.387 169.314 193.943C165.61 199.19 161.134 203.666 155.887 207.37C150.948 211.074 145.392 212.926 139.219 212.926C129.959 212.926 121.779 209.376 114.68 202.277C107.889 195.178 103.722 185.146 102.179 172.182C100.327 177.121 98.1661 182.831 95.6968 189.313C93.2275 195.795 90.1408 201.814 86.4368 207.37C82.7328 212.926 78.4115 217.556 73.4728 221.26C68.8428 225.273 63.2868 227.279 56.8048 227.279C54.9528 227.279 53.5638 227.125 52.6378 226.816C51.7118 226.507 50.6315 226.044 49.3968 225.427C48.4708 225.118 47.2361 224.81 45.6928 224.501C44.4581 224.192 42.6061 224.038 40.1368 224.038C32.7288 224.038 26.4011 221.569 21.1538 216.63C16.2151 212 12.2025 205.981 9.11581 198.573C6.02914 191.165 3.71414 183.14 2.17081 174.497C0.936138 165.546 0.318805 157.212 0.318805 149.495C0.318805 130.975 1.2448 113.381 3.09681 96.713C5.25747 80.045 8.65281 65.3833 13.2828 52.728C17.9128 39.764 23.9318 29.578 31.3398 22.17C38.7478 14.4533 47.6991 10.595 58.1938 10.595C64.3671 10.595 68.9971 11.2123 72.0838 12.447C75.4791 13.373 78.5658 14.6077 81.3438 16.151C84.1218 17.3857 87.0541 18.7747 90.1408 20.318C93.5361 21.8613 98.1661 23.096 104.031 24.022C110.513 27.726 114.988 32.2017 117.458 37.449C120.236 42.3877 121.933 47.7893 122.551 53.654C123.477 59.5187 123.785 65.692 123.477 72.174C123.168 78.3473 123.477 84.5207 124.403 90.694C124.403 91.0027 125.02 91.4657 126.255 92.083C127.798 92.7003 129.496 93.472 131.348 94.398C133.2 95.0153 134.743 96.0957 135.978 97.639C137.521 98.8737 138.293 100.571 138.293 102.732V104.584C135.206 112.609 133.354 119.709 132.737 125.882C132.119 132.055 131.811 139.463 131.811 148.106C131.811 152.427 131.965 157.212 132.274 162.459C132.891 167.398 133.663 172.182 134.589 176.812C135.823 181.133 137.521 184.837 139.682 187.924C141.842 190.702 144.62 192.091 148.016 192.091C151.72 192.091 154.961 190.239 157.739 186.535C160.825 182.831 163.295 178.664 165.147 174.034C167.307 169.095 169.005 164.157 170.24 159.218C171.783 154.279 172.709 150.575 173.018 148.106C173.635 144.402 175.178 142.55 177.648 142.55C179.191 142.55 180.58 143.476 181.815 145.328C183.358 146.871 184.13 149.804 184.13 154.125C184.13 155.36 184.13 156.594 184.13 157.829C184.13 158.755 183.975 159.99 183.667 161.533ZM98.0118 86.527C98.0118 83.1317 97.7031 79.119 97.0858 74.489C96.4685 69.859 95.3881 65.5377 93.8448 61.525C92.3015 57.5123 89.9865 54.117 86.8998 51.339C83.8131 48.561 79.6461 47.172 74.3988 47.172C65.7561 47.172 58.6568 51.1847 53.1008 59.21C47.8535 66.9267 43.6865 76.1867 40.5998 86.99C37.5131 97.4847 35.5068 108.442 34.5808 119.863C33.6548 130.975 33.1918 139.772 33.1918 146.254C33.1918 151.193 33.3461 157.212 33.6548 164.311C34.2721 171.102 35.1981 177.584 36.4328 183.757C37.6675 189.93 39.3651 195.178 41.5258 199.499C43.9951 203.82 47.0818 205.981 50.7858 205.981C59.7371 205.981 66.5278 202.586 71.1578 195.795C76.0965 188.696 79.8005 180.053 82.2698 169.867C84.7391 159.372 86.4368 148.26 87.3628 136.531C88.5975 124.493 89.6778 113.535 90.6038 103.658C91.2211 98.4107 92.6101 95.1697 94.7708 93.935C96.9315 92.3917 98.0118 91.3113 98.0118 90.694V86.527ZM280.101 183.294C280.101 190.702 277.632 196.412 272.693 200.425C267.754 204.438 262.044 207.37 255.562 209.222C249.389 211.074 243.061 212.154 236.579 212.463C230.406 213.08 225.93 213.389 223.152 213.389C218.831 213.389 213.429 212.926 206.947 212C200.774 211.074 194.6 209.685 188.427 207.833C182.562 205.672 177.469 202.74 173.148 199.036C169.135 195.332 167.129 190.702 167.129 185.146C167.129 181.751 168.364 179.436 170.833 178.201C173.611 176.658 176.235 175.886 178.704 175.886C182.099 175.886 185.34 177.121 188.427 179.59C191.822 182.059 195.218 184.683 198.613 187.461C202.317 190.239 206.33 192.863 210.651 195.332C214.972 197.801 219.911 199.036 225.467 199.036C227.936 199.036 231.177 198.264 235.19 196.721C239.511 194.869 241.672 191.782 241.672 187.461C241.672 183.14 239.82 178.973 236.116 174.96C232.721 170.947 228.245 166.78 222.689 162.459C217.442 158.138 211.731 153.662 205.558 149.032C199.385 144.402 193.52 139.463 187.964 134.216C182.717 128.66 178.241 122.641 174.537 116.159C171.142 109.677 169.444 102.578 169.444 94.861C169.444 84.0577 172.839 74.952 179.63 67.544C186.729 60.136 194.909 54.2713 204.169 49.95C213.738 45.6287 223.461 42.542 233.338 40.69C243.215 38.838 250.932 37.912 256.488 37.912C261.735 37.912 266.983 38.9923 272.23 41.153C277.477 43.3137 280.101 47.4807 280.101 53.654C280.101 55.506 279.638 58.284 278.712 61.988C278.095 65.3833 276.86 68.7787 275.008 72.174C273.465 75.5693 271.304 78.656 268.526 81.434C265.748 83.9033 262.198 85.138 257.877 85.138C256.642 85.138 255.408 84.675 254.173 83.749C252.938 82.5143 251.549 81.2797 250.006 80.045C248.463 78.5017 246.765 77.267 244.913 76.341C243.37 75.1063 241.518 74.489 239.357 74.489C228.554 74.489 220.991 77.73 216.67 84.212C212.349 90.3853 210.188 97.0217 210.188 104.121C210.188 110.294 213.738 116.776 220.837 123.567C228.245 130.358 236.27 137.148 244.913 143.939C253.864 150.73 261.89 157.52 268.989 164.311C276.397 170.793 280.101 177.121 280.101 183.294ZM476.659 161.533C476.042 165.854 474.498 170.947 472.029 176.812C469.56 182.677 466.319 188.387 462.306 193.943C458.602 199.19 454.126 203.666 448.879 207.37C443.94 211.074 438.384 212.926 432.211 212.926C422.951 212.926 414.771 209.376 407.672 202.277C400.881 195.178 396.714 185.146 395.171 172.182C393.319 177.121 391.158 182.831 388.689 189.313C386.22 195.795 383.133 201.814 379.429 207.37C375.725 212.926 371.404 217.556 366.465 221.26C361.835 225.273 356.279 227.279 349.797 227.279C347.945 227.279 346.556 227.125 345.63 226.816C344.704 226.507 343.624 226.044 342.389 225.427C341.463 225.118 340.228 224.81 338.685 224.501C337.45 224.192 335.598 224.038 333.129 224.038C325.721 224.038 319.393 221.569 314.146 216.63C309.207 212 305.195 205.981 302.108 198.573C299.021 191.165 296.706 183.14 295.163 174.497C293.928 165.546 293.311 157.212 293.311 149.495C293.311 130.975 294.237 113.381 296.089 96.713C298.25 80.045 301.645 65.3833 306.275 52.728C310.905 39.764 316.924 29.578 324.332 22.17C331.74 14.4533 340.691 10.595 351.186 10.595C357.359 10.595 361.989 11.2123 365.076 12.447C368.471 13.373 371.558 14.6077 374.336 16.151C377.114 17.3857 380.046 18.7747 383.133 20.318C386.528 21.8613 391.158 23.096 397.023 24.022C403.505 27.726 407.981 32.2017 410.45 37.449C413.228 42.3877 414.926 47.7893 415.543 53.654C416.469 59.5187 416.778 65.692 416.469 72.174C416.16 78.3473 416.469 84.5207 417.395 90.694C417.395 91.0027 418.012 91.4657 419.247 92.083C420.79 92.7003 422.488 93.472 424.34 94.398C426.192 95.0153 427.735 96.0957 428.97 97.639C430.513 98.8737 431.285 100.571 431.285 102.732V104.584C428.198 112.609 426.346 119.709 425.729 125.882C425.112 132.055 424.803 139.463 424.803 148.106C424.803 152.427 424.957 157.212 425.266 162.459C425.883 167.398 426.655 172.182 427.581 176.812C428.816 181.133 430.513 184.837 432.674 187.924C434.835 190.702 437.613 192.091 441.008 192.091C444.712 192.091 447.953 190.239 450.731 186.535C453.818 182.831 456.287 178.664 458.139 174.034C460.3 169.095 461.997 164.157 463.232 159.218C464.775 154.279 465.701 150.575 466.01 148.106C466.627 144.402 468.171 142.55 470.64 142.55C472.183 142.55 473.572 143.476 474.807 145.328C476.35 146.871 477.122 149.804 477.122 154.125C477.122 155.36 477.122 156.594 477.122 157.829C477.122 158.755 476.968 159.99 476.659 161.533ZM391.004 86.527C391.004 83.1317 390.695 79.119 390.078 74.489C389.461 69.859 388.38 65.5377 386.837 61.525C385.294 57.5123 382.979 54.117 379.892 51.339C376.805 48.561 372.638 47.172 367.391 47.172C358.748 47.172 351.649 51.1847 346.093 59.21C340.846 66.9267 336.679 76.1867 333.592 86.99C330.505 97.4847 328.499 108.442 327.573 119.863C326.647 130.975 326.184 139.772 326.184 146.254C326.184 151.193 326.338 157.212 326.647 164.311C327.264 171.102 328.19 177.584 329.425 183.757C330.66 189.93 332.357 195.178 334.518 199.499C336.987 203.82 340.074 205.981 343.778 205.981C352.729 205.981 359.52 202.586 364.15 195.795C369.089 188.696 372.793 180.053 375.262 169.867C377.731 159.372 379.429 148.26 380.355 136.531C381.59 124.493 382.67 113.535 383.596 103.658C384.213 98.4107 385.602 95.1697 387.763 93.935C389.924 92.3917 391.004 91.3113 391.004 90.694V86.527ZM593.928 123.104C593.928 136.068 592.694 148.415 590.224 160.144C588.064 171.565 584.668 181.596 580.038 190.239C575.408 198.573 569.544 205.364 562.444 210.611C555.345 215.55 547.165 218.019 537.905 218.019C529.571 218.019 522.472 216.321 516.607 212.926C510.743 209.839 507.81 204.283 507.81 196.258C507.81 192.863 508.891 190.239 511.051 188.387C513.521 186.535 515.681 185.609 517.533 185.609C520.003 185.609 521.7 186.381 522.626 187.924C523.861 189.159 524.941 190.702 525.867 192.554C527.102 194.097 528.337 195.641 529.571 197.184C531.115 198.419 533.43 199.036 536.516 199.036C541.764 199.036 545.776 196.567 548.554 191.628C551.641 186.689 553.956 180.516 555.499 173.108C557.043 165.7 557.969 157.675 558.277 149.032C558.895 140.389 559.203 132.364 559.203 124.956V103.658C559.203 99.3367 559.049 94.2437 558.74 88.379C558.432 82.2057 557.66 76.4953 556.425 71.248C555.191 65.692 553.184 61.062 550.406 57.358C547.937 53.3453 544.542 51.339 540.22 51.339C533.738 51.339 528.028 56.1233 523.089 65.692C518.459 74.952 514.601 86.8357 511.514 101.343C508.428 115.542 506.113 131.438 504.569 149.032C503.335 166.317 502.717 182.985 502.717 199.036V240.243C503.026 246.416 503.335 251.818 503.643 256.448C503.952 261.078 504.261 265.399 504.569 269.412C505.187 273.425 505.804 277.283 506.421 280.987C507.347 285 508.428 289.475 509.662 294.414C509.971 295.34 511.051 296.112 512.903 296.729C515.064 297.655 516.144 299.198 516.144 301.359C516.144 303.828 515.218 305.68 513.366 306.915C511.823 308.458 509.662 309.539 506.884 310.156C504.415 311.082 501.637 311.545 498.55 311.545C495.464 311.854 492.686 312.008 490.216 312.008H483.734C480.03 312.008 476.326 311.391 472.622 310.156C468.918 309.23 467.066 306.452 467.066 301.822V30.504C467.066 24.3307 466.449 19.392 465.214 15.688C464.906 14.4533 464.597 13.373 464.288 12.447C463.98 11.2123 463.671 10.132 463.362 9.20599C463.362 8.58865 464.134 7.81699 465.677 6.89099C467.529 5.96499 469.536 5.03899 471.696 4.11299C473.857 3.18699 475.863 2.41532 477.715 1.79799C479.876 1.18065 481.111 0.871986 481.419 0.871986C486.667 0.871986 490.679 2.56965 493.457 5.96499C496.544 9.36033 498.087 15.9967 498.087 25.874V90.231C499.939 85.9097 501.637 80.1993 503.18 73.1C505.032 66.0007 507.502 59.0557 510.588 52.265C513.984 45.1657 518.305 39.1467 523.552 34.208C528.8 28.9607 535.59 26.337 543.924 26.337C553.802 26.337 561.827 29.7323 568 36.523C574.482 43.005 579.575 51.0303 583.279 60.599C587.292 69.859 590.07 79.8907 591.613 90.694C593.157 101.189 593.928 110.603 593.928 118.937V123.104Z" fill="url(#paint0_linear_27_5)"/>
<defs>
<linearGradient id="paint0_linear_27_5" x1="-870.341" y1="85.5129" x2="791.249" y2="145.555" gradientUnits="userSpaceOnUse">
<stop stop-color="#FF00B8"/>
<stop offset="1" stop-color="#FF5C00" stop-opacity="0.64"/>
</linearGradient>
</defs>
</svg>
