<svg width="1016" height="267" viewBox="0 0 1016 267" fill="none" xmlns="http://www.w3.org/2000/svg">
<path d="M119.198 169.3C118.798 172.1 117.798 175.4 116.198 179.2C114.598 183 112.498 186.7 109.898 190.3C107.498 193.7 104.598 196.6 101.198 199C97.998 201.4 94.3981 202.6 90.3981 202.6C84.3981 202.6 79.0981 200.3 74.4981 195.7C70.098 191.1 67.398 184.6 66.398 176.2C65.1981 179.4 63.7981 183.1 62.1981 187.3C60.5981 191.5 58.5981 195.4 56.1981 199C53.798 202.6 50.998 205.6 47.798 208C44.798 210.6 41.198 211.9 36.998 211.9C35.798 211.9 34.898 211.8 34.298 211.6C33.698 211.4 32.998 211.1 32.198 210.7C31.598 210.5 30.798 210.3 29.798 210.1C28.998 209.9 27.798 209.8 26.198 209.8C21.398 209.8 17.298 208.2 13.898 205C10.698 202 8.09805 198.1 6.09805 193.3C4.09805 188.5 2.59805 183.3 1.59805 177.7C0.798047 171.9 0.398047 166.5 0.398047 161.5C0.398047 149.5 0.998047 138.1 2.19805 127.3C3.59805 116.5 5.79805 107 8.79805 98.8C11.798 90.4 15.698 83.8 20.498 79C25.298 74 31.098 71.5 37.8981 71.5C41.898 71.5 44.898 71.9 46.8981 72.7C49.098 73.3 51.098 74.1 52.898 75.1C54.6981 75.9 56.5981 76.8 58.5981 77.8C60.7981 78.8 63.7981 79.6 67.5981 80.2C71.7981 82.6 74.6981 85.5 76.298 88.9C78.098 92.1 79.198 95.6 79.598 99.4C80.198 103.2 80.398 107.2 80.1981 111.4C79.9981 115.4 80.1981 119.4 80.7981 123.4C80.7981 123.6 81.1981 123.9 81.9981 124.3C82.9981 124.7 84.0981 125.2 85.298 125.8C86.4981 126.2 87.4981 126.9 88.2981 127.9C89.2981 128.7 89.7981 129.8 89.7981 131.2V132.4C87.7981 137.6 86.5981 142.2 86.1981 146.2C85.7981 150.2 85.5981 155 85.5981 160.6C85.5981 163.4 85.6981 166.5 85.898 169.9C86.2981 173.1 86.798 176.2 87.398 179.2C88.198 182 89.2981 184.4 90.6981 186.4C92.098 188.2 93.8981 189.1 96.0981 189.1C98.4981 189.1 100.598 187.9 102.398 185.5C104.398 183.1 105.998 180.4 107.198 177.4C108.598 174.2 109.698 171 110.498 167.8C111.498 164.6 112.098 162.2 112.298 160.6C112.698 158.2 113.698 157 115.298 157C116.298 157 117.198 157.6 117.998 158.8C118.998 159.8 119.498 161.7 119.498 164.5C119.498 165.3 119.498 166.1 119.498 166.9C119.498 167.5 119.398 168.3 119.198 169.3ZM63.698 120.7C63.698 118.5 63.4981 115.9 63.0981 112.9C62.6981 109.9 61.998 107.1 60.998 104.5C59.998 101.9 58.498 99.7 56.498 97.9C54.498 96.1 51.7981 95.2 48.398 95.2C42.798 95.2 38.198 97.8 34.598 103C31.198 108 28.498 114 26.498 121C24.498 127.8 23.198 134.9 22.598 142.3C21.998 149.5 21.698 155.2 21.698 159.4C21.698 162.6 21.798 166.5 21.998 171.1C22.398 175.5 22.998 179.7 23.798 183.7C24.598 187.7 25.698 191.1 27.098 193.9C28.698 196.7 30.698 198.1 33.098 198.1C38.898 198.1 43.298 195.9 46.298 191.5C49.498 186.9 51.8981 181.3 53.4981 174.7C55.0981 167.9 56.1981 160.7 56.798 153.1C57.598 145.3 58.298 138.2 58.898 131.8C59.298 128.4 60.198 126.3 61.598 125.5C62.998 124.5 63.698 123.8 63.698 123.4V120.7ZM181.682 183.4C181.682 188.2 180.082 191.9 176.882 194.5C173.682 197.1 169.982 199 165.782 200.2C161.782 201.4 157.682 202.1 153.482 202.3C149.482 202.7 146.582 202.9 144.782 202.9C141.982 202.9 138.482 202.6 134.282 202C130.282 201.4 126.282 200.5 122.282 199.3C118.482 197.9 115.182 196 112.382 193.6C109.782 191.2 108.482 188.2 108.482 184.6C108.482 182.4 109.282 180.9 110.882 180.1C112.682 179.1 114.382 178.6 115.982 178.6C118.182 178.6 120.282 179.4 122.282 181C124.482 182.6 126.682 184.3 128.882 186.1C131.282 187.9 133.882 189.6 136.682 191.2C139.482 192.8 142.682 193.6 146.282 193.6C147.882 193.6 149.982 193.1 152.582 192.1C155.382 190.9 156.782 188.9 156.782 186.1C156.782 183.3 155.582 180.6 153.182 178C150.982 175.4 148.082 172.7 144.482 169.9C141.082 167.1 137.382 164.2 133.382 161.2C129.382 158.2 125.582 155 121.982 151.6C118.582 148 115.682 144.1 113.282 139.9C111.082 135.7 109.982 131.1 109.982 126.1C109.982 119.1 112.182 113.2 116.582 108.4C121.182 103.6 126.482 99.8 132.482 97C138.682 94.2 144.982 92.2 151.382 91C157.782 89.8 162.782 89.2 166.382 89.2C169.782 89.2 173.182 89.9 176.582 91.3C179.982 92.7 181.682 95.4 181.682 99.4C181.682 100.6 181.382 102.4 180.782 104.8C180.382 107 179.582 109.2 178.382 111.4C177.382 113.6 175.982 115.6 174.182 117.4C172.382 119 170.082 119.8 167.282 119.8C166.482 119.8 165.682 119.5 164.882 118.9C164.082 118.1 163.182 117.3 162.182 116.5C161.182 115.5 160.082 114.7 158.882 114.1C157.882 113.3 156.682 112.9 155.282 112.9C148.282 112.9 143.382 115 140.582 119.2C137.782 123.2 136.382 127.5 136.382 132.1C136.382 136.1 138.682 140.3 143.282 144.7C148.082 149.1 153.282 153.5 158.882 157.9C164.682 162.3 169.882 166.7 174.482 171.1C179.282 175.3 181.682 179.4 181.682 183.4ZM309.042 169.3C308.642 172.1 307.642 175.4 306.042 179.2C304.442 183 302.342 186.7 299.742 190.3C297.342 193.7 294.442 196.6 291.042 199C287.842 201.4 284.242 202.6 280.242 202.6C274.242 202.6 268.942 200.3 264.342 195.7C259.942 191.1 257.242 184.6 256.242 176.2C255.042 179.4 253.642 183.1 252.042 187.3C250.442 191.5 248.442 195.4 246.042 199C243.642 202.6 240.842 205.6 237.642 208C234.642 210.6 231.042 211.9 226.842 211.9C225.642 211.9 224.742 211.8 224.142 211.6C223.542 211.4 222.842 211.1 222.042 210.7C221.442 210.5 220.642 210.3 219.642 210.1C218.842 209.9 217.642 209.8 216.042 209.8C211.242 209.8 207.142 208.2 203.742 205C200.542 202 197.942 198.1 195.942 193.3C193.942 188.5 192.442 183.3 191.442 177.7C190.642 171.9 190.242 166.5 190.242 161.5C190.242 149.5 190.842 138.1 192.042 127.3C193.442 116.5 195.642 107 198.642 98.8C201.642 90.4 205.542 83.8 210.342 79C215.142 74 220.942 71.5 227.742 71.5C231.742 71.5 234.742 71.9 236.742 72.7C238.942 73.3 240.942 74.1 242.742 75.1C244.542 75.9 246.442 76.8 248.442 77.8C250.642 78.8 253.642 79.6 257.442 80.2C261.642 82.6 264.542 85.5 266.142 88.9C267.942 92.1 269.042 95.6 269.442 99.4C270.042 103.2 270.242 107.2 270.042 111.4C269.842 115.4 270.042 119.4 270.642 123.4C270.642 123.6 271.042 123.9 271.842 124.3C272.842 124.7 273.942 125.2 275.142 125.8C276.342 126.2 277.342 126.9 278.142 127.9C279.142 128.7 279.642 129.8 279.642 131.2V132.4C277.642 137.6 276.442 142.2 276.042 146.2C275.642 150.2 275.442 155 275.442 160.6C275.442 163.4 275.542 166.5 275.742 169.9C276.142 173.1 276.642 176.2 277.242 179.2C278.042 182 279.142 184.4 280.542 186.4C281.942 188.2 283.742 189.1 285.942 189.1C288.342 189.1 290.442 187.9 292.242 185.5C294.242 183.1 295.842 180.4 297.042 177.4C298.442 174.2 299.542 171 300.342 167.8C301.342 164.6 301.942 162.2 302.142 160.6C302.542 158.2 303.542 157 305.142 157C306.142 157 307.042 157.6 307.842 158.8C308.842 159.8 309.342 161.7 309.342 164.5C309.342 165.3 309.342 166.1 309.342 166.9C309.342 167.5 309.242 168.3 309.042 169.3ZM253.542 120.7C253.542 118.5 253.342 115.9 252.942 112.9C252.542 109.9 251.842 107.1 250.842 104.5C249.842 101.9 248.342 99.7 246.342 97.9C244.342 96.1 241.642 95.2 238.242 95.2C232.642 95.2 228.042 97.8 224.442 103C221.042 108 218.342 114 216.342 121C214.342 127.8 213.042 134.9 212.442 142.3C211.842 149.5 211.542 155.2 211.542 159.4C211.542 162.6 211.642 166.5 211.842 171.1C212.242 175.5 212.842 179.7 213.642 183.7C214.442 187.7 215.542 191.1 216.942 193.9C218.542 196.7 220.542 198.1 222.942 198.1C228.742 198.1 233.142 195.9 236.142 191.5C239.342 186.9 241.742 181.3 243.342 174.7C244.942 167.9 246.042 160.7 246.642 153.1C247.442 145.3 248.142 138.2 248.742 131.8C249.142 128.4 250.042 126.3 251.442 125.5C252.842 124.5 253.542 123.8 253.542 123.4V120.7ZM385.026 144.4C385.026 152.8 384.226 160.8 382.626 168.4C381.226 175.8 379.026 182.3 376.026 187.9C373.026 193.3 369.226 197.7 364.626 201.1C360.026 204.3 354.726 205.9 348.726 205.9C343.326 205.9 338.726 204.8 334.926 202.6C331.126 200.6 329.226 197 329.226 191.8C329.226 189.6 329.926 187.9 331.326 186.7C332.926 185.5 334.326 184.9 335.526 184.9C337.126 184.9 338.226 185.4 338.826 186.4C339.626 187.2 340.326 188.2 340.926 189.4C341.726 190.4 342.526 191.4 343.326 192.4C344.326 193.2 345.826 193.6 347.826 193.6C351.226 193.6 353.826 192 355.626 188.8C357.626 185.6 359.126 181.6 360.126 176.8C361.126 172 361.726 166.8 361.926 161.2C362.326 155.6 362.526 150.4 362.526 145.6V131.8C362.526 129 362.426 125.7 362.226 121.9C362.026 117.9 361.526 114.2 360.726 110.8C359.926 107.2 358.626 104.2 356.826 101.8C355.226 99.2 353.026 97.9 350.226 97.9C346.026 97.9 342.326 101 339.126 107.2C336.126 113.2 333.626 120.9 331.626 130.3C329.626 139.5 328.126 149.8 327.126 161.2C326.326 172.4 325.926 183.2 325.926 193.6V220.3C326.126 224.3 326.326 227.8 326.526 230.8C326.726 233.8 326.926 236.6 327.126 239.2C327.526 241.8 327.926 244.3 328.326 246.7C328.926 249.3 329.626 252.2 330.426 255.4C330.626 256 331.326 256.5 332.526 256.9C333.926 257.5 334.626 258.5 334.626 259.9C334.626 261.5 334.026 262.7 332.826 263.5C331.826 264.5 330.426 265.2 328.626 265.6C327.026 266.2 325.226 266.5 323.226 266.5C321.226 266.7 319.426 266.8 317.826 266.8H313.626C311.226 266.8 308.826 266.4 306.426 265.6C304.026 265 302.826 263.2 302.826 260.2V84.4C302.826 80.4 302.426 77.2 301.626 74.8C301.426 74 301.226 73.3 301.026 72.7C300.826 71.9 300.626 71.2 300.426 70.6C300.426 70.2 300.926 69.7 301.926 69.1C303.126 68.5 304.426 67.9 305.826 67.3C307.226 66.7 308.526 66.2 309.726 65.8C311.126 65.4 311.926 65.2 312.126 65.2C315.526 65.2 318.126 66.3 319.926 68.5C321.926 70.7 322.926 75 322.926 81.4V123.1C324.126 120.3 325.226 116.6 326.226 112C327.426 107.4 329.026 102.9 331.026 98.5C333.226 93.9 336.026 90 339.426 86.8C342.826 83.4 347.226 81.7 352.626 81.7C359.026 81.7 364.226 83.9 368.226 88.3C372.426 92.5 375.726 97.7 378.126 103.9C380.726 109.9 382.526 116.4 383.526 123.4C384.526 130.2 385.026 136.3 385.026 141.7V144.4ZM546.529 155.8C546.529 160.8 545.629 166.4 543.829 172.6C542.029 178.8 539.229 184.6 535.429 190C531.629 195.2 526.729 199.6 520.729 203.2C514.929 206.8 507.929 208.6 499.729 208.6C491.929 208.6 485.329 207.2 479.929 204.4C474.529 201.6 470.029 197.8 466.429 193C463.029 188.2 460.529 182.6 458.929 176.2C457.529 169.6 456.829 162.7 456.829 155.5C456.829 148.5 457.629 140.8 459.229 132.4C460.829 124 463.329 116.2 466.729 109C470.129 101.6 474.429 95.5 479.629 90.7C484.829 85.7 491.129 83.2 498.529 83.2C502.129 83.2 505.529 84 508.729 85.6C511.929 87 514.729 88.9 517.129 91.3C519.529 93.7 521.429 96.5 522.829 99.7C524.229 102.9 525.029 106.2 525.229 109.6L525.529 113.8C525.529 118.6 524.729 123.9 523.129 129.7C521.529 135.3 519.229 140.6 516.229 145.6C513.229 150.4 509.529 154.5 505.129 157.9C500.729 161.1 495.729 162.7 490.129 162.7C489.129 162.7 487.829 162.6 486.229 162.4C484.829 162.2 483.429 161.9 482.029 161.5V170.2C482.029 171.6 482.429 173.6 483.229 176.2C484.229 178.8 485.629 181.4 487.429 184C489.229 186.4 491.529 188.6 494.329 190.6C497.329 192.4 500.929 193.3 505.129 193.3C510.929 193.3 515.629 192.2 519.229 190C523.029 187.6 526.129 184.6 528.529 181C530.929 177.4 532.729 173.4 533.929 169C535.329 164.4 536.429 160 537.229 155.8C537.829 153 538.429 151.1 539.029 150.1C539.629 149.1 540.629 148.6 542.029 148.6C545.029 148.6 546.529 150.3 546.529 153.7V155.8ZM511.129 109.3C511.129 107.7 510.629 106 509.629 104.2C508.829 102.4 507.229 101.5 504.829 101.5C501.229 101.5 498.129 103.4 495.529 107.2C492.929 111 490.729 115.4 488.929 120.4C487.329 125.2 486.129 129.9 485.329 134.5C484.529 138.9 484.129 141.8 484.129 143.2V144.1C484.129 145.9 484.229 147.4 484.429 148.6C484.829 149.6 485.929 150.1 487.729 150.1H489.229C493.229 150.1 496.629 148.6 499.429 145.6C502.229 142.6 504.429 139 506.029 134.8C507.829 130.6 509.129 126.3 509.929 121.9C510.729 117.5 511.129 113.9 511.129 111.1V109.3ZM622.889 159.7C622.889 161.1 622.389 164.5 621.389 169.9C620.589 175.1 618.989 180.7 616.589 186.7C614.389 192.5 611.289 197.7 607.289 202.3C603.489 206.9 598.589 209.2 592.589 209.2C586.189 209.2 581.089 206.9 577.289 202.3C573.489 197.9 570.589 192.6 568.589 186.4C566.589 180 565.289 173.4 564.689 166.6C564.089 159.6 563.789 153.8 563.789 149.2C563.789 144 564.089 138.8 564.689 133.6C565.289 128.2 565.689 122.9 565.889 117.7C565.889 116.1 565.089 115.1 563.489 114.7C561.889 114.3 560.389 114.1 558.989 114.1C556.589 114.1 555.089 114.4 554.489 115C553.889 115.6 553.489 116.3 553.289 117.1L552.089 126.7C551.289 133.1 550.389 139.3 549.389 145.3C548.589 151.1 547.589 156.3 546.389 160.9C545.389 165.3 544.089 168.9 542.489 171.7C541.089 174.3 539.389 175.6 537.389 175.6H537.089C536.289 175.6 535.489 175.4 534.689 175C534.089 174.6 533.789 173.6 533.789 172C533.789 171.2 533.989 170 534.389 168.4C535.989 161.4 536.989 155.6 537.389 151C537.789 146.4 538.089 142.3 538.289 138.7V136.6C538.289 135.6 538.289 134.4 538.289 133C538.489 131.6 538.589 129.9 538.589 127.9V120.1C538.589 117.9 538.589 115.6 538.589 113.2C538.589 110.8 538.389 108.2 537.989 105.4L537.089 87.7C537.089 86.5 537.589 85.4 538.589 84.4C539.589 83.4 540.889 82.5 542.489 81.7C544.089 80.9 545.789 80.3 547.589 79.9C549.389 79.5 550.989 79.3 552.389 79.3C555.789 79.3 557.489 81.5 557.489 85.9V87.4L557.189 94V95.8C557.189 97.2 557.489 98.1 558.089 98.5C558.689 98.7 559.889 99 561.689 99.4H562.589C564.189 99.6 566.789 99.8 570.389 100C573.989 100.2 577.589 100.6 581.189 101.2C584.789 101.8 587.889 102.8 590.489 104.2C593.289 105.4 594.689 107.2 594.689 109.6C594.689 110.4 594.489 111.6 594.089 113.2C593.689 114.6 593.189 116.1 592.589 117.7C591.989 119.1 591.489 120.4 591.089 121.6C590.689 122.8 590.489 123.6 590.489 124C586.889 137.8 585.089 152.2 585.089 167.2C585.089 168.4 585.189 170.6 585.389 173.8C585.589 177 585.989 180.3 586.589 183.7C587.189 187.1 588.089 190.1 589.289 192.7C590.489 195.3 591.989 196.6 593.789 196.6C596.789 196.6 599.489 194.8 601.889 191.2C604.289 187.4 606.389 183.1 608.189 178.3C609.989 173.3 611.389 168.3 612.389 163.3C613.589 158.3 614.389 154.6 614.789 152.2C615.189 150 615.789 148.7 616.589 148.3C617.589 147.7 618.489 147.4 619.289 147.4C622.089 147.4 623.489 149.2 623.489 152.8C623.489 153.2 623.389 154.3 623.189 156.1C623.189 157.7 623.089 158.9 622.889 159.7ZM700.232 159.7C700.232 161.1 699.732 164.5 698.732 169.9C697.932 175.1 696.332 180.7 693.932 186.7C691.732 192.5 688.632 197.7 684.632 202.3C680.832 206.9 675.932 209.2 669.932 209.2C663.532 209.2 658.432 206.9 654.632 202.3C650.832 197.9 647.932 192.6 645.932 186.4C643.932 180 642.632 173.4 642.032 166.6C641.432 159.6 641.132 153.8 641.132 149.2C641.132 144 641.432 138.8 642.032 133.6C642.632 128.2 643.032 122.9 643.232 117.7C643.232 116.1 642.432 115.1 640.832 114.7C639.232 114.3 637.732 114.1 636.332 114.1C633.932 114.1 632.432 114.4 631.832 115C631.232 115.6 630.832 116.3 630.632 117.1L629.432 126.7C628.632 133.1 627.732 139.3 626.732 145.3C625.932 151.1 624.932 156.3 623.732 160.9C622.732 165.3 621.432 168.9 619.832 171.7C618.432 174.3 616.732 175.6 614.732 175.6H614.432C613.632 175.6 612.832 175.4 612.032 175C611.432 174.6 611.132 173.6 611.132 172C611.132 171.2 611.332 170 611.732 168.4C613.332 161.4 614.332 155.6 614.732 151C615.132 146.4 615.432 142.3 615.632 138.7V136.6C615.632 135.6 615.632 134.4 615.632 133C615.832 131.6 615.932 129.9 615.932 127.9V120.1C615.932 117.9 615.932 115.6 615.932 113.2C615.932 110.8 615.732 108.2 615.332 105.4L614.432 87.7C614.432 86.5 614.932 85.4 615.932 84.4C616.932 83.4 618.232 82.5 619.832 81.7C621.432 80.9 623.132 80.3 624.932 79.9C626.732 79.5 628.332 79.3 629.732 79.3C633.132 79.3 634.832 81.5 634.832 85.9V87.4L634.532 94V95.8C634.532 97.2 634.832 98.1 635.432 98.5C636.032 98.7 637.232 99 639.032 99.4H639.932C641.532 99.6 644.132 99.8 647.732 100C651.332 100.2 654.932 100.6 658.532 101.2C662.132 101.8 665.232 102.8 667.832 104.2C670.632 105.4 672.032 107.2 672.032 109.6C672.032 110.4 671.832 111.6 671.432 113.2C671.032 114.6 670.532 116.1 669.932 117.7C669.332 119.1 668.832 120.4 668.432 121.6C668.032 122.8 667.832 123.6 667.832 124C664.232 137.8 662.432 152.2 662.432 167.2C662.432 168.4 662.532 170.6 662.732 173.8C662.932 177 663.332 180.3 663.932 183.7C664.532 187.1 665.432 190.1 666.632 192.7C667.832 195.3 669.332 196.6 671.132 196.6C674.132 196.6 676.832 194.8 679.232 191.2C681.632 187.4 683.732 183.1 685.532 178.3C687.332 173.3 688.732 168.3 689.732 163.3C690.932 158.3 691.732 154.6 692.132 152.2C692.532 150 693.132 148.7 693.932 148.3C694.932 147.7 695.832 147.4 696.632 147.4C699.432 147.4 700.832 149.2 700.832 152.8C700.832 153.2 700.732 154.3 700.532 156.1C700.532 157.7 700.432 158.9 700.232 159.7ZM810.311 169.3C809.911 172.1 808.911 175.4 807.311 179.2C805.711 183 803.611 186.7 801.011 190.3C798.611 193.7 795.711 196.6 792.311 199C789.111 201.4 785.511 202.6 781.511 202.6C775.511 202.6 770.211 200.3 765.611 195.7C761.211 191.1 758.511 184.6 757.511 176.2C756.311 179.4 754.911 183.1 753.311 187.3C751.711 191.5 749.711 195.4 747.311 199C744.911 202.6 742.111 205.6 738.911 208C735.911 210.6 732.311 211.9 728.111 211.9C726.911 211.9 726.011 211.8 725.411 211.6C724.811 211.4 724.111 211.1 723.311 210.7C722.711 210.5 721.911 210.3 720.911 210.1C720.111 209.9 718.911 209.8 717.311 209.8C712.511 209.8 708.411 208.2 705.011 205C701.811 202 699.211 198.1 697.211 193.3C695.211 188.5 693.711 183.3 692.711 177.7C691.911 171.9 691.511 166.5 691.511 161.5C691.511 149.5 692.111 138.1 693.311 127.3C694.711 116.5 696.911 107 699.911 98.8C702.911 90.4 706.811 83.8 711.611 79C716.411 74 722.211 71.5 729.011 71.5C733.011 71.5 736.011 71.9 738.011 72.7C740.211 73.3 742.211 74.1 744.011 75.1C745.811 75.9 747.711 76.8 749.711 77.8C751.911 78.8 754.911 79.6 758.711 80.2C762.911 82.6 765.811 85.5 767.411 88.9C769.211 92.1 770.311 95.6 770.711 99.4C771.311 103.2 771.511 107.2 771.311 111.4C771.111 115.4 771.311 119.4 771.911 123.4C771.911 123.6 772.311 123.9 773.111 124.3C774.111 124.7 775.211 125.2 776.411 125.8C777.611 126.2 778.611 126.9 779.411 127.9C780.411 128.7 780.911 129.8 780.911 131.2V132.4C778.911 137.6 777.711 142.2 777.311 146.2C776.911 150.2 776.711 155 776.711 160.6C776.711 163.4 776.811 166.5 777.011 169.9C777.411 173.1 777.911 176.2 778.511 179.2C779.311 182 780.411 184.4 781.811 186.4C783.211 188.2 785.011 189.1 787.211 189.1C789.611 189.1 791.711 187.9 793.511 185.5C795.511 183.1 797.111 180.4 798.311 177.4C799.711 174.2 800.811 171 801.611 167.8C802.611 164.6 803.211 162.2 803.411 160.6C803.811 158.2 804.811 157 806.411 157C807.411 157 808.311 157.6 809.111 158.8C810.111 159.8 810.611 161.7 810.611 164.5C810.611 165.3 810.611 166.1 810.611 166.9C810.611 167.5 810.511 168.3 810.311 169.3ZM754.811 120.7C754.811 118.5 754.611 115.9 754.211 112.9C753.811 109.9 753.111 107.1 752.111 104.5C751.111 101.9 749.611 99.7 747.611 97.9C745.611 96.1 742.911 95.2 739.511 95.2C733.911 95.2 729.311 97.8 725.711 103C722.311 108 719.611 114 717.611 121C715.611 127.8 714.311 134.9 713.711 142.3C713.111 149.5 712.811 155.2 712.811 159.4C712.811 162.6 712.911 166.5 713.111 171.1C713.511 175.5 714.111 179.7 714.911 183.7C715.711 187.7 716.811 191.1 718.211 193.9C719.811 196.7 721.811 198.1 724.211 198.1C730.011 198.1 734.411 195.9 737.411 191.5C740.611 186.9 743.011 181.3 744.611 174.7C746.211 167.9 747.311 160.7 747.911 153.1C748.711 145.3 749.411 138.2 750.011 131.8C750.411 128.4 751.311 126.3 752.711 125.5C754.111 124.5 754.811 123.8 754.811 123.4V120.7ZM847.296 136.6C844.296 140.8 841.796 145.5 839.796 150.7C837.996 155.7 836.396 161 834.996 166.6C833.596 172 832.396 177.5 831.396 183.1C830.596 188.5 829.696 193.7 828.696 198.7C828.296 199.9 826.696 200.7 823.896 201.1C821.296 201.5 819.396 201.7 818.196 201.7C814.596 201.7 811.596 201.5 809.196 201.1C806.996 200.7 805.296 199.8 804.096 198.4C802.896 196.8 801.996 194.5 801.396 191.5C800.796 188.3 800.296 184.1 799.896 178.9L803.796 89.8C803.796 87.2 805.196 85.9 807.996 85.9C808.996 85.9 810.396 86.1 812.196 86.5C813.996 86.7 815.896 87.1 817.896 87.7C819.896 88.3 821.596 89.1 822.996 90.1C824.396 90.9 825.096 91.9 825.096 93.1V154C825.296 153.8 825.596 153 825.996 151.6C827.396 148 829.096 143.6 831.096 138.4C833.096 133 835.296 127.9 837.696 123.1C840.096 118.3 842.596 114.2 845.196 110.8C847.996 107.4 850.796 105.7 853.596 105.7C857.196 105.7 859.896 106.6 861.696 108.4C863.696 110 865.196 112.1 866.196 114.7C867.196 117.3 867.796 120.1 867.996 123.1C868.196 126.1 868.296 129 868.296 131.8C868.296 133.8 868.096 137.1 867.696 141.7C867.296 146.3 867.096 153.2 867.096 162.4C867.096 167.6 867.596 172.3 868.596 176.5C869.596 180.7 871.596 182.8 874.596 182.8C876.796 182.8 878.796 181.8 880.596 179.8C882.396 177.8 883.996 175.3 885.396 172.3C886.996 169.3 888.296 166.1 889.296 162.7C890.296 159.3 890.896 156.1 891.096 153.1C891.296 149.3 892.796 147.4 895.596 147.4C897.396 147.4 898.596 148 899.196 149.2C899.796 150.4 900.096 151.8 900.096 153.4V154C899.896 158 899.096 162.5 897.696 167.5C896.496 172.5 894.596 177.2 891.996 181.6C889.596 186 886.396 189.7 882.396 192.7C878.396 195.7 873.496 197.2 867.696 197.2C858.696 197.2 852.896 194 850.296 187.6C847.896 181 846.696 171.3 846.696 158.5L847.296 136.6ZM1015.2 150.7C1014.8 155.1 1013.9 160.1 1012.5 165.7C1011.3 171.3 1009.4 176.6 1006.8 181.6C1004.4 186.6 1001.1 190.8 996.902 194.2C992.902 197.6 988.002 199.3 982.202 199.3C973.602 199.3 967.302 197.3 963.302 193.3C959.502 189.3 956.302 183.1 953.702 174.7L953.402 176.2C952.602 179.4 951.602 182.9 950.402 186.7C949.402 190.5 947.902 194 945.902 197.2C944.102 200.2 941.802 202.7 939.002 204.7C936.202 206.9 932.602 208 928.202 208C925.202 208 922.202 207.4 919.202 206.2C916.402 205.2 913.402 203.9 910.202 202.3C905.602 199.9 902.002 196.7 899.402 192.7C896.802 188.7 894.902 184.6 893.702 180.4C892.502 176.2 891.802 172.2 891.602 168.4C891.402 164.4 891.302 161.3 891.302 159.1V154C891.302 152.8 891.602 150.2 892.202 146.2C892.802 142.2 893.702 137.6 894.902 132.4C896.302 127 897.902 121.4 899.702 115.6C901.702 109.8 904.002 104.5 906.602 99.7C909.402 94.9 912.502 90.9 915.902 87.7C919.502 84.5 923.502 82.9 927.902 82.9C932.702 82.9 937.302 83.7 941.702 85.3C946.302 86.9 949.602 88.1 951.602 88.9C951.802 85.3 951.902 80.9 951.902 75.7C952.102 70.5 952.202 65.4 952.202 60.4C952.402 55.2 952.502 50.4 952.502 46C952.502 41.6 952.502 38.3 952.502 36.1C952.502 30.9 952.402 26.5 952.202 22.9C952.002 19.1 951.602 15.9 951.002 13.3C950.602 10.7 950.102 8.59999 949.502 6.99999C948.902 5.39999 948.202 3.99999 947.402 2.79999C950.802 1.79999 954.102 1.09999 957.302 0.699999C960.702 0.299992 963.802 0.0999887 966.602 0.0999887C971.202 0.0999887 974.702 0.49999 977.102 1.29999C979.702 1.9 981.002 3.6 981.002 6.4C981.002 7.59999 980.702 11.1 980.102 16.9C979.502 22.7 978.902 30.3 978.302 39.7C977.702 48.9 977.102 59.6 976.502 71.8C975.902 84 975.602 97 975.602 110.8V141.1C975.602 146.7 975.702 152.1 975.902 157.3C976.102 162.3 976.502 166.8 977.102 170.8C977.902 174.6 979.002 177.7 980.402 180.1C981.802 182.3 983.802 183.4 986.402 183.4C992.202 183.4 996.502 180.1 999.302 173.5C1002.3 166.7 1004.7 156.1 1006.5 141.7C1006.7 140.1 1007.1 138.7 1007.7 137.5C1008.3 136.3 1009.6 135.7 1011.6 135.7C1013.4 135.7 1014.5 136.9 1014.9 139.3C1015.5 141.5 1015.7 143.7 1015.5 145.9L1015.2 150.7ZM951.902 107.2C951.902 106.6 951.402 105.9 950.402 105.1C949.602 104.3 948.502 103.5 947.102 102.7C945.902 101.9 944.602 101.2 943.202 100.6C941.802 100 940.602 99.7 939.602 99.7C935.602 99.7 932.002 102.2 928.802 107.2C925.802 112 923.202 118 921.002 125.2C919.002 132.4 917.502 140.1 916.502 148.3C915.502 156.5 915.002 163.8 915.002 170.2C915.002 172.6 915.102 175.4 915.302 178.6C915.502 181.8 916.002 184.8 916.802 187.6C917.602 190.4 918.702 192.8 920.102 194.8C921.502 196.8 923.402 197.8 925.802 197.8C928.402 197.8 930.802 196.3 933.002 193.3C935.202 190.3 937.202 186.4 939.002 181.6C940.802 176.8 942.402 171.4 943.802 165.4C945.402 159.4 946.702 153.5 947.702 147.7C948.902 141.7 949.802 136.1 950.402 130.9C951.002 125.5 951.402 121.2 951.602 118L951.902 107.2Z" fill="url(#paint0_linear_38_2)"/>
<defs>
<linearGradient id="paint0_linear_38_2" x1="-1425.71" y1="120.026" x2="1288.1" y2="368.877" gradientUnits="userSpaceOnUse">
<stop stop-color="#FF00B8"/>
<stop offset="1" stop-color="#FF5C00" stop-opacity="0.64"/>
</linearGradient>
</defs>
</svg>
