<svg width="15" height="13" viewBox="0 0 15 13" fill="none" xmlns="http://www.w3.org/2000/svg">
<path fill-rule="evenodd" clip-rule="evenodd" d="M3.82069 12.7134C3.56455 12.782 3.29166 12.746 3.06202 12.6134C2.83238 12.4808 2.6648 12.2625 2.59613 12.0064L0.399979 3.81021C0.331388 3.55407 0.367336 3.28117 0.499918 3.05154C0.632501 2.8219 0.85086 2.65432 1.10698 2.58565L9.30313 0.389497C9.55754 0.326044 9.8267 0.365055 10.0526 0.498126C10.2786 0.631198 10.4432 0.847683 10.5111 1.10096C10.5789 1.35423 10.5446 1.62402 10.4155 1.85223C10.2863 2.08044 10.0727 2.2488 9.82069 2.32106L3.95634 3.8924L13.9901 9.6854C14.2198 9.81801 14.3874 10.0364 14.456 10.2926C14.5247 10.5488 14.4887 10.8217 14.3561 11.0514C14.2235 11.2811 14.0051 11.4487 13.7489 11.5174C13.4928 11.586 13.2198 11.5501 12.9901 11.4175L2.95634 5.62445L4.52769 11.4888C4.59628 11.7449 4.56033 12.0178 4.42775 12.2475C4.29517 12.4771 4.07681 12.6447 3.82069 12.7134Z" fill="black"/>
</svg>
