<svg width="22" height="22" viewBox="0 0 22 22" fill="none" xmlns="http://www.w3.org/2000/svg">
<path d="M10.9375 20.3125C12.1686 20.3125 13.3877 20.07 14.5252 19.5989C15.6626 19.1277 16.6961 18.4372 17.5666 17.5666C18.4372 16.6961 19.1277 15.6626 19.5989 14.5252C20.07 13.3877 20.3125 12.1686 20.3125 10.9375C20.3125 9.70636 20.07 8.48727 19.5989 7.34984C19.1277 6.21242 18.4372 5.17892 17.5666 4.30837C16.6961 3.43782 15.6626 2.74727 14.5252 2.27613C13.3877 1.80499 12.1686 1.5625 10.9375 1.5625C8.4511 1.5625 6.06653 2.55022 4.30837 4.30837C2.55022 6.06653 1.5625 8.4511 1.5625 10.9375C1.5625 13.4239 2.55022 15.8085 4.30837 17.5666C6.06653 19.3248 8.4511 20.3125 10.9375 20.3125V20.3125ZM10.9375 21.875C8.03669 21.875 5.2547 20.7227 3.20352 18.6715C1.15234 16.6203 0 13.8383 0 10.9375C0 8.03669 1.15234 5.2547 3.20352 3.20352C5.2547 1.15234 8.03669 0 10.9375 0C13.8383 0 16.6203 1.15234 18.6715 3.20352C20.7227 5.2547 21.875 8.03669 21.875 10.9375C21.875 13.8383 20.7227 16.6203 18.6715 18.6715C16.6203 20.7227 13.8383 21.875 10.9375 21.875Z" fill="url(#paint0_linear_45_14)"/>
<path d="M16.1594 6.12813C14.9531 8.90313 13.6719 10.9688 12.3187 12.3203C10.9656 13.6734 8.90156 14.9547 6.12812 16.1609C6.07056 16.1863 6.00668 16.1937 5.94483 16.1822C5.88298 16.1707 5.82605 16.1408 5.78148 16.0964C5.73691 16.052 5.70678 15.9952 5.69503 15.9334C5.68328 15.8716 5.69046 15.8077 5.71562 15.75C6.925 12.9734 8.20625 10.9094 9.55625 9.55782C10.9078 8.20782 12.9719 6.92657 15.7484 5.71719C15.8059 5.6923 15.8696 5.68526 15.9311 5.697C15.9927 5.70873 16.0493 5.73869 16.0936 5.783C16.1379 5.8273 16.1678 5.88389 16.1796 5.94544C16.1913 6.00698 16.1843 6.07063 16.1594 6.12813V6.12813Z" fill="url(#paint1_linear_45_14)"/>
<defs>
<linearGradient id="paint0_linear_45_14" x1="10.9375" y1="0" x2="10.9375" y2="21.875" gradientUnits="userSpaceOnUse">
<stop stop-color="#FF0099" stop-opacity="0.64"/>
<stop offset="1" stop-color="#FF5C00" stop-opacity="0.64"/>
</linearGradient>
<linearGradient id="paint1_linear_45_14" x1="10.9373" y1="5.69147" x2="10.9373" y2="16.1875" gradientUnits="userSpaceOnUse">
<stop stop-color="#FF0099" stop-opacity="0.64"/>
<stop offset="1" stop-color="#FF5C00" stop-opacity="0.64"/>
</linearGradient>
</defs>
</svg>
