<svg width="21" height="21" viewBox="0 0 21 21" fill="none" xmlns="http://www.w3.org/2000/svg">
<path d="M10.4167 14.5833C12.7179 14.5833 14.5833 12.7179 14.5833 10.4167C14.5833 8.11548 12.7179 6.25 10.4167 6.25C8.11548 6.25 6.25 8.11548 6.25 10.4167C6.25 12.7179 8.11548 14.5833 10.4167 14.5833Z" fill="#333333"/>
<path d="M11.4583 2.15521V0H9.375V2.15521C7.54198 2.38925 5.83851 3.22518 4.53184 4.53184C3.22518 5.83851 2.38925 7.54198 2.15521 9.375H0V11.4583H2.15521C2.38891 13.2915 3.22473 14.9951 4.53145 16.3019C5.83818 17.6086 7.54184 18.4444 9.375 18.6781V20.8333H11.4583V18.6781C13.2916 18.4446 14.9953 17.6088 16.3021 16.3021C17.6088 14.9953 18.4446 13.2916 18.6781 11.4583H20.8333V9.375H18.6781C18.4444 7.54184 17.6086 5.83818 16.3019 4.53145C14.9951 3.22473 13.2915 2.38891 11.4583 2.15521V2.15521ZM10.4167 16.6667C6.96979 16.6667 4.16667 13.8635 4.16667 10.4167C4.16667 6.96979 6.96979 4.16667 10.4167 4.16667C13.8635 4.16667 16.6667 6.96979 16.6667 10.4167C16.6667 13.8635 13.8635 16.6667 10.4167 16.6667Z" fill="#333333"/>
</svg>
