<svg width="22" height="22" viewBox="0 0 22 22" fill="none" xmlns="http://www.w3.org/2000/svg">
<path d="M9.76576 10.9375C9.76576 11.2483 9.88923 11.5464 10.109 11.7661C10.3288 11.9859 10.6268 12.1094 10.9376 12.1094C11.2484 12.1094 11.5465 11.9859 11.7663 11.7661C11.986 11.5464 12.1095 11.2483 12.1095 10.9375C12.1095 10.6267 11.986 10.3286 11.7663 10.1089C11.5465 9.88909 11.2484 9.76563 10.9376 9.76562C10.6268 9.76563 10.3288 9.88909 10.109 10.1089C9.88923 10.3286 9.76576 10.6267 9.76576 10.9375V10.9375ZM14.6486 10.9375C14.6486 11.2483 14.772 11.5464 14.9918 11.7661C15.2116 11.9859 15.5097 12.1094 15.8205 12.1094C16.1313 12.1094 16.4293 11.9859 16.6491 11.7661C16.8689 11.5464 16.9923 11.2483 16.9923 10.9375C16.9923 10.6267 16.8689 10.3286 16.6491 10.1089C16.4293 9.88909 16.1313 9.76563 15.8205 9.76562C15.5097 9.76563 15.2116 9.88909 14.9918 10.1089C14.772 10.3286 14.6486 10.6267 14.6486 10.9375ZM4.88295 10.9375C4.88295 11.2483 5.00642 11.5464 5.22619 11.7661C5.44595 11.9859 5.74403 12.1094 6.05483 12.1094C6.36563 12.1094 6.6637 11.9859 6.88347 11.7661C7.10324 11.5464 7.2267 11.2483 7.2267 10.9375C7.2267 10.6267 7.10324 10.3286 6.88347 10.1089C6.6637 9.88909 6.36563 9.76563 6.05483 9.76562C5.74403 9.76563 5.44595 9.88909 5.22619 10.1089C5.00642 10.3286 4.88295 10.6267 4.88295 10.9375V10.9375ZM21.0255 6.69922C20.4738 5.38818 19.6828 4.21143 18.6745 3.20068C17.6732 2.19579 16.4846 1.39703 15.1759 0.849609C13.8331 0.285645 12.4074 0 10.9376 0H10.8888C9.40932 0.00732422 7.97621 0.300293 6.62856 0.876465C5.33109 1.4295 4.15361 2.22968 3.16176 3.23242C2.16322 4.24072 1.37953 5.4126 0.837541 6.71875C0.276017 8.07129 -0.00718571 9.50928 0.000138508 10.9888C0.00842281 12.6843 0.409542 14.3548 1.17201 15.8691V19.5801C1.17201 19.8779 1.29033 20.1636 1.50095 20.3742C1.71156 20.5848 1.99721 20.7031 2.29506 20.7031H6.00844C7.52283 21.4656 9.19333 21.8667 10.8888 21.875H10.9401C12.4025 21.875 13.8209 21.5918 15.1564 21.0376C16.4585 20.4967 17.6426 19.7073 18.6427 18.7134C19.651 17.7148 20.4445 16.5479 20.9987 15.2466C21.5748 13.8989 21.8678 12.4658 21.8751 10.9863C21.8825 9.49951 21.5944 8.05664 21.0255 6.69922V6.69922ZM17.3366 17.3926C15.6251 19.0869 13.3546 20.0195 10.9376 20.0195H10.8961C9.42397 20.0122 7.96156 19.646 6.67006 18.9575L6.46498 18.8477H3.02748V15.4102L2.91762 15.2051C2.22914 13.9136 1.86293 12.4512 1.85561 10.979C1.84584 8.54492 2.77602 6.25977 4.48256 4.53857C6.18666 2.81738 8.46449 1.86523 10.8986 1.85547H10.9401C12.1608 1.85547 13.3449 2.09228 14.4606 2.56104C15.5495 3.01758 16.526 3.67432 17.3659 4.51416C18.2033 5.35156 18.8624 6.33057 19.319 7.41943C19.7926 8.54736 20.0294 9.74365 20.0246 10.979C20.0099 13.4106 19.0553 15.6885 17.3366 17.3926V17.3926Z" fill="#888888"/>
</svg>
