<svg width="22" height="22" viewBox="0 0 22 22" fill="none" xmlns="http://www.w3.org/2000/svg">
<path d="M3.35667 17.4489C5.68824 16.131 8.32175 15.4404 11 15.4444C13.7778 15.4444 16.3856 16.1722 18.6433 17.4489H3.35667ZM14.3333 8.77778C14.3333 9.66183 13.9821 10.5097 13.357 11.1348C12.7319 11.7599 11.8841 12.1111 11 12.1111C10.1159 12.1111 9.2681 11.7599 8.64298 11.1348C8.01786 10.5097 7.66667 9.66183 7.66667 8.77778C7.66667 7.89372 8.01786 7.04588 8.64298 6.42076C9.2681 5.79563 10.1159 5.44444 11 5.44444C11.8841 5.44444 12.7319 5.79563 13.357 6.42076C13.9821 7.04588 14.3333 7.89372 14.3333 8.77778V8.77778ZM21 11C21 12.3132 20.7413 13.6136 20.2388 14.8268C19.7363 16.0401 18.9997 17.1425 18.0711 18.0711C17.1425 18.9997 16.0401 19.7363 14.8268 20.2388C13.6136 20.7413 12.3132 21 11 21C9.68678 21 8.38642 20.7413 7.17317 20.2388C5.95991 19.7363 4.85752 18.9997 3.92893 18.0711C3.00035 17.1425 2.26375 16.0401 1.7612 14.8268C1.25866 13.6136 1 12.3132 1 11C1 8.34784 2.05357 5.8043 3.92893 3.92893C5.8043 2.05357 8.34784 1 11 1C13.6522 1 16.1957 2.05357 18.0711 3.92893C19.9464 5.8043 21 8.34784 21 11Z" stroke="#888888" stroke-width="2" stroke-linecap="round" stroke-linejoin="round"/>
</svg>
