<svg width="15" height="15" viewBox="0 0 15 15" fill="none" xmlns="http://www.w3.org/2000/svg">
<path d="M6.48257 0.69075C6.78257 -0.23025 8.08557 -0.23025 8.38457 0.69075L9.45457 3.98275C9.51994 4.18324 9.64702 4.35793 9.81764 4.48185C9.98826 4.60578 10.1937 4.67259 10.4046 4.67275H13.8666C14.8356 4.67275 15.2376 5.91275 14.4546 6.48275L11.6546 8.51675C11.4836 8.64078 11.3563 8.81576 11.2909 9.0166C11.2255 9.21745 11.2254 9.43384 11.2906 9.63475L12.3606 12.9268C12.6606 13.8477 11.6056 14.6147 10.8206 14.0448L8.02057 12.0107C7.84977 11.8868 7.64413 11.82 7.43307 11.82C7.22201 11.82 7.01636 11.8868 6.84557 12.0107L4.04557 14.0448C3.26157 14.6147 2.20757 13.8477 2.50657 12.9268L3.57657 9.63475C3.64174 9.43384 3.64163 9.21745 3.57623 9.0166C3.51084 8.81576 3.38354 8.64078 3.21257 8.51675L0.413568 6.48375C-0.369432 5.91375 0.033568 4.67375 1.00157 4.67375H4.46257C4.67362 4.67381 4.87927 4.60709 5.05009 4.48315C5.22091 4.35921 5.34814 4.1844 5.41357 3.98375L6.48357 0.69175L6.48257 0.69075Z" fill="#FFC700"/>
</svg>
