<svg width="18" height="17" viewBox="0 0 18 17" fill="none" xmlns="http://www.w3.org/2000/svg">
<path d="M8.67779 1.55079C8.91668 0.816405 9.95426 0.816405 10.1924 1.55079L11.4019 5.27771C11.454 5.43758 11.5552 5.57687 11.6911 5.67569C11.8269 5.7745 11.9905 5.82778 12.1584 5.8279H16.0722C16.8439 5.8279 17.164 6.81665 16.5405 7.27115L13.3744 9.57397C13.2384 9.67297 13.1372 9.81254 13.0852 9.97268C13.0333 10.1328 13.0333 10.3053 13.0853 10.4654L14.2941 14.1924C14.533 14.9275 13.6929 15.5383 13.0694 15.0838L9.9033 12.781C9.76722 12.682 9.60331 12.6286 9.43507 12.6286C9.26684 12.6286 9.10293 12.682 8.96685 12.781L5.80075 15.0838C5.17725 15.5383 4.33715 14.9267 4.57604 14.1924L5.78483 10.4654C5.83681 10.3053 5.83684 10.1328 5.78491 9.97268C5.73299 9.81254 5.63177 9.67297 5.49577 9.57397L2.32968 7.27115C1.70538 6.81665 2.02708 5.8279 2.7979 5.8279H6.71093C6.87899 5.82795 7.04275 5.77475 7.17877 5.67592C7.3148 5.5771 7.41611 5.43771 7.46821 5.27771L8.67779 1.55079V1.55079Z" fill="white" stroke="#FFC700" stroke-width="2" stroke-linecap="round" stroke-linejoin="round"/>
</svg>
